<?xml version="1.0" encoding="utf-8"?>
<!-- Generator: Adobe Illustrator 22.0.1, SVG Export Plug-In . SVG Version: 6.00 Build 0)  -->
<svg version="1.1" id="Layer_1" xmlns="http://www.w3.org/2000/svg" xmlns:xlink="http://www.w3.org/1999/xlink" x="0px" y="0px"
	 viewBox="0 0 369.9 101.9" style="enable-background:new 0 0 369.9 101.9;" xml:space="preserve">
<style type="text/css">
	.st0{fill:#FFFFFF;}
	.st1{font-family:'GothamMedium';}
	.st2{font-size:72px;}
</style>
<text transform="matrix(1 0 0 1 6.0953 91.9522)" class="st0 st1 st2">L  KEBON</text>
<g>
	<g>
		<path class="st0" d="M87.1,8.3c-3.4-2.7-9.1-3.7-14.9,1.8c0,0-0.1,0.1-0.1,0.1c-1.2,1.2-2.5,3.4-3.6,5.4c-1.1-2.1-2.5-4.4-3.7-5.6
			c-6.4-6-12.5-4.3-15.8-1c-4.3,4.3-5.2,11.7-1.9,17.1c4.4,7.4,13.1,14.1,17.6,17.2c-3.2-1.2-6-1.7-7.6-0.2
			c-0.6,0.6-0.9,1.5-1.1,2.6c0,0.1,0,0.2,0,0.3c0.6,1.4,1.6,2.4,3.1,2.9c2.3,0.7,5.6,0,8.7-1.8c0.1,0.6,0.2,1.3,0.3,1.9l0.4,2.4
			c0.1,0.8,0.3,1.5,0.3,2.2c0,0.3,0.1,0.8,0.1,1c0,0.3,0,0.5,0,0.8c0,0.3-0.1,0.8-0.2,1.1l0,0.3l0,0l-0.2,0.4
			c-0.2,0.6-0.5,1.2-0.8,1.8l-1.1,2c-0.4,0.7-0.8,1.5-1.1,2.4l-0.5,1.4C65.1,65.4,65,66,65,66.5c0,0.3-0.1,0.6-0.1,0.8l0,0.6l0,0.6
			l0,0.3l0,0.3l0,0.2c0.1,1,0.4,2,0.9,2.9c0.5,0.9,1.1,1.6,1.6,2.2c0.3,0.3,0.4,0.5,0.6,0.7l0.3,0.5l0.1,0.3l0,0c0,0,0,0,0,0l0,0.1
			c0.2,0.4,0.3,1.2,0.3,1.9c0,0.7,0,1.5,0,2.4l-0.1,1.3c0,0.4-0.2,0.9-0.3,1.3c-0.1,0.4-0.3,0.9-0.4,1.4c-0.2,0.5-0.3,1-0.4,1.4
			l-0.2,0.7c-0.1,0.4-0.1,0.6-0.1,0.9c0,0.5,0.1,1.1,0.2,1.6c0.2,1,0.6,1.9,0.8,2.9c0,0.1,0.1,0.2,0.2,0.2c0.1,0,0.2-0.1,0.2-0.2
			l0,0c-0.1-1-0.3-2-0.4-2.9c0-0.5,0-0.9,0-1.4c0-0.2,0.1-0.5,0.1-0.6l0.3-0.7c0.2-0.5,0.4-0.9,0.6-1.3c0.2-0.4,0.4-0.8,0.6-1.4
			c0.2-0.5,0.4-1,0.5-1.5l0.4-1.6l0-0.1l0.3-2.4c0.1-0.9,0.1-1.8-0.2-2.9l-0.1-0.2c0-0.1,0,0,0-0.1l0-0.1l-0.1-0.3l-0.2-0.6
			c-0.2-0.4-0.5-1-0.7-1.3c-0.5-0.7-0.9-1.3-1.1-1.8c-0.3-0.5-0.3-1.1-0.3-1.7l0-0.1l0-0.1l0-0.3l0-0.6l0-0.6c0-0.2,0.1-0.3,0.1-0.4
			c0.1-0.3,0.1-0.5,0.3-0.8l0.4-0.9c0.4-0.6,0.8-1.2,1.2-1.8c0.4-0.6,1-1.4,1.4-2.1c0.2-0.4,0.4-0.8,0.6-1.3
			c0.2-0.4,0.3-0.9,0.5-1.4l0.2-0.7l0,0l0,0l0.1-0.3l0-0.1l0-0.2l0-0.3c0-0.4,0.1-0.7,0-1.3c-0.1-0.6-0.1-1.1-0.2-1.6
			c-0.1-0.6-0.2-0.9-0.4-1.4c-0.3-0.9-0.6-1.6-1-2.4c-0.4-0.8-0.8-1.5-1.2-2.2l-0.6-0.9c1.6,0.6,3.2,1.1,4.6,1.2
			c3.7,0.1,5.5-0.9,6.4-1.7c1.4-1.4,1.4-3.4,0-5c-1-1.1-2.5-1.7-4.3-1.6c2-1.6,4.3-3.6,6.4-5.7l0,0c2.8-2.8,5.1-5.6,6.6-8.2
			C93.9,19.7,91.5,11.8,87.1,8.3z M59.7,47.6c-1-0.3-1.7-0.9-2.1-1.8c0.1-0.7,0.3-1.1,0.6-1.5c1.4-1.4,5.3,0.2,8.9,1.6
			C64.4,47.5,61.6,48.2,59.7,47.6z M80.1,42.8c0.6,0.7,1,1.9,0,2.9c-0.9,0.9-2.8,1.4-5.3,1.3c-1.3-0.1-3-0.7-4.7-1.3
			c0.3-0.3,0.6-0.5,0.9-0.8l1.6-1.3C75.9,40.9,78.7,41.3,80.1,42.8z M86.1,23.9c-1.4,2.3-3.4,4.8-5.9,7.3l0,0
			c-4.4,4.4-9.3,7.9-11.5,9.4c-3.4-2.3-13.2-9.3-17.6-16.8c-2.4-4.1-1.3-9.1,1.2-11.6c2.6-2.6,6-2.2,9.5,1.1
			c1.3,1.2,3.5,5.6,4.8,8.4c0.4,0.8,1.2,1.3,2.1,1.3c0.9,0,1.7-0.5,2.1-1.3c1.1-2.5,3.4-7,4.8-8.4l0,0c3.2-3.1,6.4-3.6,9-1.6
			C87.2,14.2,88.7,19.6,86.1,23.9z"/>
	</g>
</g>
</svg>
